<!-- icon666.com - MILLIONS vector ICONS FREE --><svg version="1.1" id="Capa_1" xmlns="http://www.w3.org/2000/svg" xmlns:xlink="http://www.w3.org/1999/xlink" x="0px" y="0px" viewBox="0 0 135.528 135.528" style="enable-background:new 0 0 135.528 135.528;" xml:space="preserve"><g><linearGradient id="SVGID_1_" gradientUnits="userSpaceOnUse" x1="20.5351" y1="20.5346" x2="114.5052" y2="114.5047"><stop offset="0" style="stop-color:#6EC7DB"></stop><stop offset="1" style="stop-color:#30AFCC"></stop></linearGradient><circle style="fill:url(#SVGID_1_);" cx="67.764" cy="67.764" r="67.764"></circle><g><g><circle style="fill:#F7B400;" cx="68.035" cy="67.824" r="32.425"></circle><g><path style="fill:#FFF99A;" d="M85.348,21.785l-4.756-1.546l-3.211,11.514c1.298,0.336,2.565,0.745,3.805,1.213L85.348,21.785z"></path><path style="fill:#FFF99A;" d="M98.112,28.993l-4.093-2.876L87.6,36.123c1.137,0.702,2.23,1.468,3.281,2.285L98.112,28.993z"></path><path style="fill:#FFF99A;" d="M108.19,39.635l-3.065-3.951l-9.036,7.641c0.876,1.004,1.701,2.056,2.47,3.151L108.19,39.635z"></path><path style="fill:#FFF99A;" d="M114.694,52.771l-1.769-4.679l-10.837,4.626c0.54,1.215,1.021,2.463,1.432,3.744L114.694,52.771z "></path><path style="fill:#FFF99A;" d="M117.047,67.237l-0.314-4.991l-11.702,1.234c0.152,1.313,0.239,2.647,0.25,4L117.047,67.237z"></path><path style="fill:#FFF99A;" d="M103.722,78.528l11.322,3.229l1.167-4.864l-11.552-2.262 C104.413,75.956,104.102,77.257,103.722,78.528z"></path><path style="fill:#FFF99A;" d="M108.859,95.046l2.547-4.305l-10.399-5.572c-0.625,1.186-1.306,2.336-2.05,3.441L108.859,95.046z "></path><path style="fill:#FFF99A;" d="M91.424,96.815l7.615,9.113l3.699-3.366l-8.336-8.42C93.46,95.088,92.462,95.977,91.424,96.815z"></path><path style="fill:#FFF99A;" d="M86.455,113.443l4.526-2.13l-5.524-10.559c-1.172,0.622-2.384,1.18-3.626,1.676L86.455,113.443z"></path><path style="fill:#FFF99A;" d="M72.217,116.926l4.951-0.705l-2.19-11.798c-1.294,0.245-2.613,0.42-3.951,0.526L72.217,116.926z"></path><path style="fill:#FFF99A;" d="M57.585,116.066l4.941,0.783l1.384-12.003c-1.331-0.146-2.642-0.366-3.928-0.649L57.585,116.066z "></path><path style="fill:#FFF99A;" d="M43.852,110.943l4.492,2.2l4.883-11.132c-1.222-0.528-2.406-1.125-3.554-1.776L43.852,110.943z"></path><path style="fill:#FFF99A;" d="M40.995,93.436l-8.763,8.573l3.648,3.425l7.991-9.266C42.863,95.308,41.904,94.396,40.995,93.436 z"></path><path style="fill:#FFF99A;" d="M23.754,90.052l2.478,4.346l10.405-6.532c-0.709-1.111-1.364-2.261-1.958-3.447L23.754,90.052z"></path><path style="fill:#FFF99A;" d="M19.166,76.131l1.091,4.882l11.892-3.191c-0.352-1.264-0.64-2.553-0.858-3.868L19.166,76.131z"></path><path style="fill:#FFF99A;" d="M18.874,61.478l-0.393,4.986l12.322,0.447c0.033-1.335,0.134-2.651,0.303-3.949L18.874,61.478z"></path><path style="fill:#FFF99A;" d="M22.904,47.385l-1.842,4.649l11.62,4.042c0.419-1.261,0.904-2.491,1.45-3.688L22.904,47.385z"></path><path style="fill:#FFF99A;" d="M30.899,35.1l-3.127,3.904l9.891,7.26c0.768-1.08,1.59-2.117,2.466-3.106L30.899,35.1z"></path><path style="fill:#FFF99A;" d="M42.154,25.71l-4.137,2.811l7.283,9.8c1.047-0.809,2.135-1.565,3.266-2.26L42.154,25.71z"></path><path style="fill:#FFF99A;" d="M55.67,20.043l-4.78,1.471l4.052,11.428c1.235-0.463,2.499-0.869,3.793-1.202L55.67,20.043z"></path><path style="fill:#FFF99A;" d="M69.749,30.613l0.507-12.011h-5l0.509,12.043c0.752-0.046,1.507-0.076,2.27-0.076 C68.61,30.57,69.182,30.588,69.749,30.613z"></path></g></g></g></g></svg>