<!-- icon666.com - MILLIONS vector ICONS FREE --><svg id="Capa_1" enable-background="new 0 0 512 512" viewBox="0 0 512 512" xmlns="http://www.w3.org/2000/svg" xmlns:xlink="http://www.w3.org/1999/xlink"><linearGradient id="SVGID_1_" gradientUnits="userSpaceOnUse" x1="256" x2="256" y1="418.747" y2="33.253"><stop offset="0" stop-color="#fd5900"></stop><stop offset="1" stop-color="#ffde00"></stop></linearGradient><linearGradient id="SVGID_2_" gradientUnits="userSpaceOnUse" x1="256" x2="256" y1="478.747" y2="358.754"><stop offset="0" stop-color="#ffe59a"></stop><stop offset="1" stop-color="#ffffd5"></stop></linearGradient><g><g><g><path d="m94.091 175.055c4.614-6.885 2.783-16.201-4.087-20.815l-24.902-16.714c-6.929-4.614-16.201-2.783-20.815 4.087-4.614 6.885-2.783 16.201 4.087 20.815l24.902 16.714c6.922 4.642 16.234 2.75 20.815-4.087zm270.6-53.217c6.922 4.641 16.235 2.749 20.815-4.087l16.714-24.902c4.614-6.885 2.783-16.201-4.087-20.815-6.914-4.614-16.23-2.769-20.815 4.087l-16.714 24.902c-4.614 6.884-2.783 16.2 4.087 20.815zm-236.733-5.2c4.545 6.875 13.806 8.836 20.786 4.263 6.914-4.556 8.818-13.857 4.263-20.786l-16.509-25.049c-4.556-6.885-13.799-8.789-20.786-4.263-6.914 4.556-8.818 13.857-4.263 20.786zm340.986 26.821c-4.541-6.885-13.813-8.789-20.786-4.263l-25.049 16.509c-6.914 4.556-8.818 13.857-4.263 20.786 4.545 6.875 13.806 8.836 20.786 4.263l25.049-16.509c6.915-4.556 8.819-13.857 4.263-20.786zm24.859 176.03-29.341-6.299c-8.203-1.758-16.069 3.413-17.813 11.514s3.413 16.069 11.514 17.813l29.341 6.299c7.92 1.736 16.049-3.294 17.813-11.514 1.743-8.101-3.414-16.07-11.514-17.813zm-439.966-94.512-29.341-6.299c-8.174-1.802-16.084 3.428-17.813 11.514-1.743 8.101 3.413 16.069 11.514 17.813l29.341 6.299c7.92 1.736 16.049-3.294 17.812-11.514 1.744-8.101-3.412-16.069-11.513-17.813zm243.12-131.88c7.92 1.736 16.049-3.294 17.813-11.514l6.299-29.341c1.743-8.101-3.413-16.069-11.514-17.813-8.232-1.846-16.069 3.428-17.813 11.514l-6.299 29.341c-1.743 8.102 3.413 16.07 11.514 17.813zm-96.196-12.509c1.599 8.13 9.476 13.402 17.622 11.821 8.115-1.597 13.418-9.492 11.821-17.622l-5.786-29.429c-1.597-8.115-9.463-13.418-17.622-11.821-8.115 1.597-13.418 9.492-11.821 17.622zm-153.721 228.955-29.429 5.786c-8.115 1.597-13.418 9.492-11.821 17.622 1.599 8.13 9.476 13.402 17.622 11.821l29.429-5.786c8.115-1.597 13.418-9.492 11.821-17.622-1.597-8.115-9.375-13.447-17.622-11.821zm400.298-63.413c1.599 8.13 9.476 13.402 17.622 11.821l29.429-5.786c8.115-1.597 13.418-9.492 11.821-17.622s-9.39-13.462-17.622-11.821l-29.429 5.786c-8.115 1.596-13.418 9.492-11.821 17.622zm-191.338-127.383c-90.981 0-165 74.019-165 165 0 75.888 50.162 135 105 135 24.346 0 47.109-14.78 60-25.049 12.891 10.269 35.654 25.049 60 25.049 54.74 0 105-58.033 105-135 0-90.982-74.019-165-165-165z" fill="url(#SVGID_1_)" style="fill: rgb(252, 214, 139);"></path></g></g><g><g><path d="m502.757 359.904c-5.552-2.256-12.026-1.055-16.348 3.223-7.178 7.119-31.059 25.62-50.409 25.62s-42.231-18.501-49.409-25.62c-5.859-5.83-15.322-5.83-21.182 0-7.178 7.119-30.059 25.62-49.409 25.62s-42.231-18.501-49.409-25.62c-5.859-5.83-15.322-5.83-21.182 0-7.178 7.119-30.059 25.62-49.409 25.62s-42.231-18.501-49.409-25.62c-5.859-5.83-15.322-5.83-21.182 0-7.178 7.119-30.059 25.62-49.409 25.62s-43.231-18.501-50.409-25.62c-4.321-4.292-10.796-5.522-16.348-3.223-5.596 2.329-9.243 7.793-9.243 13.843v90c0 8.291 6.709 15 15 15h482c8.291 0 15-6.709 15-15v-90c0-6.05-3.647-11.514-9.243-13.843z" fill="url(#SVGID_2_)" style="fill: rgb(81, 123, 139);"></path></g></g></g></svg>